<?xml version="1.0" encoding="UTF-8" standalone="no"?>
<!-- Created with Inkscape (http://www.inkscape.org/) -->

<svg
   width="185.51051mm"
   height="135.97852mm"
   viewBox="0 0 185.51051 135.97852"
   version="1.1"
   id="svg15342"
   inkscape:version="1.2.1 (9c6d41e410, 2022-07-14)"
   sodipodi:docname="caso_de_uso.svg"
   xml:space="preserve"
   xmlns:inkscape="http://www.inkscape.org/namespaces/inkscape"
   xmlns:sodipodi="http://sodipodi.sourceforge.net/DTD/sodipodi-0.dtd"
   xmlns="http://www.w3.org/2000/svg"
   xmlns:svg="http://www.w3.org/2000/svg"><sodipodi:namedview
     id="namedview15344"
     pagecolor="#ffffff"
     bordercolor="#666666"
     borderopacity="1.0"
     inkscape:showpageshadow="2"
     inkscape:pageopacity="0.0"
     inkscape:pagecheckerboard="0"
     inkscape:deskcolor="#d1d1d1"
     inkscape:document-units="mm"
     showgrid="false"
     inkscape:zoom="1.0662987"
     inkscape:cx="351.21489"
     inkscape:cy="257.43254"
     inkscape:window-width="1920"
     inkscape:window-height="991"
     inkscape:window-x="-9"
     inkscape:window-y="-9"
     inkscape:window-maximized="1"
     inkscape:current-layer="layer1" /><defs
     id="defs15339"><marker
   style="overflow:visible"
   id="RoundedArrow"
   refX="5"
   refY="0"
   orient="auto-start-reverse"
   inkscape:stockid="RoundedArrow"
   markerWidth="6.1347523"
   markerHeight="5.9304953"
   viewBox="0 0 6.1347524 5.9304951"
   inkscape:isstock="true"
   inkscape:collect="always"
   preserveAspectRatio="xMidYMid"><path
     transform="scale(0.7)"
     d="m -0.21114562,-4.1055728 6.42229122,3.21114561 a 1,1 90 0 1 0,1.78885438 L -0.21114562,4.1055728 A 1.236068,1.236068 31.717474 0 1 -2,3 v -6 a 1.236068,1.236068 148.28253 0 1 1.78885438,-1.1055728 z"
     style="fill:context-stroke;fill-rule:evenodd;stroke:none"
     id="path1367" /></marker>
	
	
	
	
	
	
	
	
	
	
	
	
	
	
	
	
	
	
	
	
	
	
	
	
	
	
	
	
	
	
	
	
	
	
	
	
	
	
	
	
	
	
	
	
	
	
	
	
	
	
	
	
	
	
	
	
	
	
	
	
	
	
	
	
	
	
	
	
	
	
	
	
	
	
	
	
	
	
	
	
	
	
	
	
	
	
	
	
	
	
	
	
	
	
	
	
	
	
	
	
	
	
	
	
	
	
	
	
	
	
	
	
	
	
	
	
	
	
	
	
	
	
	
	
	
	
	
	
	
	
	
	
	
	
	
</defs><g
     inkscape:label="Capa 1"
     inkscape:groupmode="layer"
     id="layer1"
     transform="translate(-14.955911,-66.981347)"><g
       id="g3539"><rect
         style="fill:#afe9dd;fill-opacity:0.521964;stroke:#217867;stroke-width:0.499999;stroke-linejoin:round"
         id="rect15886"
         width="114.88433"
         height="106.01865"
         x="85.332092"
         y="67.231346"
         rx="2.6163883"
         ry="1.4553748" /><path
         fill="none"
         d="m 26.525844,102.53455 c -0.02573,0.0154 -0.05132,0.0311 -0.07685,0.0468 0.02553,-0.0158 0.05113,-0.0314 0.07685,-0.0468 z"
         id="path911"
         style="stroke-width:0.447059" /><path
         fill="none"
         d="m 27.821132,101.91641 c -0.0097,0.004 -0.01954,0.007 -0.02924,0.0104 0.0097,-0.004 0.01954,-0.007 0.02924,-0.0104 z"
         id="path913"
         style="stroke-width:0.447059" /><path
         fill="none"
         d="m 27.602885,101.99978 c -0.01895,0.008 -0.03758,0.0157 -0.05647,0.0234 0.01889,-0.008 0.03751,-0.0158 0.05647,-0.0234 z"
         id="path915"
         style="stroke-width:0.447059" /><path
         fill="none"
         d="m 27.41668,102.07741 c -0.02397,0.0104 -0.04767,0.0212 -0.07151,0.0319 0.02384,-0.0106 0.04754,-0.0215 0.07151,-0.0319 z"
         id="path917"
         style="stroke-width:0.447059" /><path
         fill="none"
         d="m 26.698306,102.43419 c -0.02599,0.0147 -0.05184,0.0296 -0.07763,0.0446 0.02579,-0.015 0.05165,-0.03 0.07763,-0.0446 z"
         id="path919"
         style="stroke-width:0.447059" /><path
         fill="none"
         d="m 27.051957,102.24668 c -0.02618,0.013 -0.05204,0.0264 -0.07803,0.0397 0.02599,-0.0133 0.05191,-0.0266 0.07803,-0.0397 z"
         id="path921"
         style="stroke-width:0.447059" /><path
         fill="none"
         d="m 26.873764,102.33819 c -0.02618,0.0139 -0.05217,0.0281 -0.07816,0.0423 0.02599,-0.0142 0.05197,-0.0284 0.07816,-0.0423 z"
         id="path923"
         style="stroke-width:0.447059" /><path
         fill="none"
         d="m 27.232821,102.1598 c -0.02547,0.0118 -0.05054,0.0241 -0.07588,0.0361 0.02534,-0.012 0.05047,-0.0243 0.07588,-0.0361 z"
         id="path925"
         style="stroke-width:0.447059" /><path
         fill="none"
         d="m 29.069398,101.57513 c -0.03074,0.006 -0.06148,0.0115 -0.09209,0.0176 0.03061,-0.006 0.06135,-0.0119 0.09209,-0.0176 z"
         id="path927"
         style="stroke-width:0.447059" /><path
         fill="none"
         d="m 28.864436,101.61616 c -0.03029,0.006 -0.06057,0.0129 -0.09073,0.0197 0.03016,-0.007 0.06044,-0.0133 0.09073,-0.0197 z"
         id="path929"
         style="stroke-width:0.447059" /><path
         fill="none"
         d="m 29.276508,101.53938 c -0.03126,0.005 -0.06246,0.0101 -0.09352,0.0154 0.03107,-0.005 0.06226,-0.0105 0.09352,-0.0154 z"
         id="path931"
         style="stroke-width:0.447059" /><path
         fill="none"
         d="m 29.695875,101.48395 c -0.03172,0.003 -0.06337,0.007 -0.09502,0.0107 0.03165,-0.004 0.06324,-0.007 0.09502,-0.0107 z"
         id="path933"
         style="stroke-width:0.447059" /><path
         fill="none"
         d="m 28.256716,101.77189 c -0.02644,0.008 -0.05302,0.0156 -0.07933,0.0238 0.02631,-0.008 0.05288,-0.0158 0.07933,-0.0238 z"
         id="path935"
         style="stroke-width:0.447059" /><path
         fill="none"
         d="m 28.051755,101.83643 c -0.0228,0.008 -0.04572,0.0147 -0.06839,0.0224 0.02266,-0.008 0.04559,-0.0148 0.06839,-0.0224 z"
         id="path937"
         style="stroke-width:0.447059" /><path
         fill="none"
         d="m 28.458682,101.71431 c -0.02833,0.008 -0.05673,0.0151 -0.08493,0.0231 0.0282,-0.008 0.0566,-0.0154 0.08493,-0.0231 z"
         id="path939"
         style="stroke-width:0.447059" /><path
         fill="none"
         d="m 28.660842,101.66254 c -0.02944,0.007 -0.05894,0.0141 -0.08818,0.0215 0.02931,-0.007 0.05881,-0.0144 0.08818,-0.0215 z"
         id="path941"
         style="stroke-width:0.447059" /><path
         fill="none"
         d="m 20.75983,119.81638 c 0.06637,-0.0384 0.133254,-0.0761 0.201184,-0.11209 -0.06786,0.036 -0.134752,0.0737 -0.201184,0.11209 z"
         id="path943"
         style="stroke-width:0.447059" /><path
         fill="none"
         d="m 19.534425,120.75026 c 0.04709,-0.0464 0.09489,-0.092 0.143414,-0.13683 -0.04852,0.0448 -0.09633,0.0905 -0.143414,0.13683 z"
         id="path945"
         style="stroke-width:0.447059" /><path
         fill="none"
         d="m 19.709362,120.58418 c 0.05542,-0.0504 0.111827,-0.0997 0.16901,-0.1481 -0.05718,0.0483 -0.113585,0.0976 -0.16901,0.1481 z"
         id="path947"
         style="stroke-width:0.447059" /><path
         fill="none"
         d="m 19.916928,120.4041 c 0.05171,-0.043 0.104142,-0.0852 0.157287,-0.12642 -0.05314,0.0412 -0.105574,0.0834 -0.157287,0.12642 z"
         id="path949"
         style="stroke-width:0.447059" /><path
         fill="none"
         d="m 26.356443,102.63921 c -0.0254,0.0162 -0.05074,0.0325 -0.07594,0.0489 0.02521,-0.0164 0.05054,-0.0327 0.07594,-0.0489 z"
         id="path951"
         style="stroke-width:0.447059" /><path
         fill="none"
         d="m 20.518722,119.96298 c 0.06389,-0.041 0.12876,-0.0806 0.19428,-0.11919 -0.06546,0.0387 -0.130389,0.0782 -0.19428,0.11919 z"
         id="path953"
         style="stroke-width:0.447059" /><path
         fill="none"
         d="m 20.100853,120.25678 c 0.05972,-0.0458 0.120424,-0.0903 0.181841,-0.13391 -0.06142,0.0436 -0.122117,0.0881 -0.181841,0.13391 z"
         id="path955"
         style="stroke-width:0.447059" /><path
         fill="none"
         d="m 30.468046,101.43999 c 0.02905,-3.3e-4 0.05803,-9.1e-4 0.08721,-9.1e-4 -0.02918,-7e-5 -0.05816,5.8e-4 -0.08721,9.1e-4 z"
         id="path957"
         style="stroke-width:0.447059" /><path
         fill="none"
         d="m 20.32594,120.09252 c 0.05803,-0.0404 0.116646,-0.0801 0.176044,-0.11853 -0.0594,0.0385 -0.118014,0.0781 -0.176044,0.11853 z"
         id="path959"
         style="stroke-width:0.447059" /><path
         fill="none"
         d="m 39.392759,110.09578 c 0.0012,0.0686 0.0014,0.13697 8.46e-4,0.20503 5.21e-4,-0.0681 3.26e-4,-0.13638 -8.46e-4,-0.20503 z"
         id="path961"
         style="stroke-width:0.447059" /><path
         fill="none"
         d="m 26.026433,102.86176 c -0.02429,0.0173 -0.04859,0.0346 -0.07268,0.0522 0.0241,-0.0176 0.04839,-0.0349 0.07268,-0.0522 z"
         id="path963"
         style="stroke-width:0.447059" /><path
         fill="none"
         d="m 25.021686,103.72179 c 0.01159,-0.0118 0.02286,-0.0239 0.03452,-0.0357 -0.01166,0.0117 -0.02293,0.0238 -0.03452,0.0357 z"
         id="path965"
         style="stroke-width:0.447059" /><path
         fill="none"
         d="m 26.189973,102.7483 c -0.02494,0.0168 -0.04976,0.0337 -0.07451,0.0507 0.02475,-0.0171 0.04956,-0.0339 0.07451,-0.0507 z"
         id="path967"
         style="stroke-width:0.447059" /><path
         fill="none"
         d="m 25.865499,102.97984 c -0.02332,0.0176 -0.0467,0.0351 -0.06982,0.053 0.02312,-0.0179 0.0465,-0.0354 0.06982,-0.053 z"
         id="path969"
         style="stroke-width:0.447059" /><path
         fill="none"
         d="m 25.230686,103.51624 c -0.01114,0.0106 -0.0226,0.0208 -0.03367,0.0315 0.01107,-0.0106 0.02253,-0.0209 0.03367,-0.0315 z"
         id="path971"
         style="stroke-width:0.447059" /><path
         fill="none"
         d="m 25.707301,103.10248 c -0.02228,0.0177 -0.04461,0.0353 -0.06663,0.0533 0.02201,-0.0179 0.04442,-0.0356 0.06663,-0.0533 z"
         id="path973"
         style="stroke-width:0.447059" /><path
         fill="none"
         d="m 25.396048,103.36475 c -0.01824,0.0162 -0.03667,0.0322 -0.05477,0.0486 0.01811,-0.0164 0.03654,-0.0324 0.05477,-0.0486 z"
         id="path975"
         style="stroke-width:0.447059" /><path
         fill="none"
         d="m 29.485312,101.50896 c -0.03165,0.004 -0.06318,0.009 -0.09463,0.0131 0.03152,-0.005 0.06304,-0.009 0.09463,-0.0131 z"
         id="path977"
         style="stroke-width:0.447059" /><path
         fill="none"
         d="m 38.565097,113.76171 c 0.01602,-0.0316 0.03165,-0.0634 0.04728,-0.0953 -0.01563,0.0319 -0.03126,0.0637 -0.04728,0.0953 z"
         id="path979"
         style="stroke-width:0.447059" /><path
         fill="none"
         d="m 38.387165,114.09159 c 0.01713,-0.03 0.034,-0.0601 0.0508,-0.0904 -0.0168,0.0303 -0.03367,0.0604 -0.0508,0.0904 z"
         id="path981"
         style="stroke-width:0.447059" /><path
         fill="none"
         d="m 29.908131,101.46441 c -0.03178,0.002 -0.06337,0.005 -0.09502,0.008 0.03165,-0.003 0.06331,-0.006 0.09502,-0.008 z"
         id="path983"
         style="stroke-width:0.447059" /><path
         fill="none"
         d="m 38.292206,114.25285 c 0.01785,-0.0294 0.03543,-0.059 0.05288,-0.0887 -0.01745,0.0297 -0.0351,0.0593 -0.05288,0.0887 z"
         id="path985"
         style="stroke-width:0.447059" /><path
         fill="none"
         d="m 38.478085,113.92792 c 0.01654,-0.0307 0.03276,-0.0616 0.04891,-0.0926 -0.01615,0.0309 -0.03237,0.0618 -0.04891,0.0926 z"
         id="path987"
         style="stroke-width:0.447059" /><path
         fill="none"
         d="m 38.648072,113.59302 c 0.0157,-0.0329 0.03094,-0.0662 0.04618,-0.0994 -0.01524,0.0332 -0.03048,0.0665 -0.04618,0.0994 z"
         id="path989"
         style="stroke-width:0.447059" /><path
         fill="none"
         d="m 38.801777,113.24849 c 0.01693,-0.0407 0.03322,-0.0818 0.0495,-0.1229 -0.01628,0.0411 -0.03256,0.0822 -0.0495,0.1229 z"
         id="path991"
         style="stroke-width:0.447059" /><path
         fill="none"
         d="m 38.727009,113.42193 c 0.01563,-0.0351 0.03074,-0.0706 0.04592,-0.10603 -0.01518,0.0354 -0.03028,0.0709 -0.04592,0.10603 z"
         id="path993"
         style="stroke-width:0.447059" /><path
         fill="none"
         d="m 38.19334,114.4115 c 0.01856,-0.029 0.03706,-0.0582 0.05523,-0.0874 -0.01817,0.0293 -0.03667,0.0584 -0.05523,0.0874 z"
         id="path995"
         style="stroke-width:0.447059" /><path
         fill="none"
         d="m 37.471514,115.36252 c 0.0411,-0.046 0.08167,-0.0924 0.121661,-0.13944 -0.03999,0.047 -0.08057,0.0935 -0.121661,0.13944 z"
         id="path997"
         style="stroke-width:0.447059" /><path
         fill="none"
         d="m 38.090501,114.56775 c 0.01941,-0.0287 0.03869,-0.0574 0.0577,-0.0864 -0.01895,0.0289 -0.0383,0.0576 -0.0577,0.0864 z"
         id="path999"
         style="stroke-width:0.447059" /><path
         fill="none"
         d="m 37.621246,115.18927 c 0.03022,-0.0359 0.06038,-0.072 0.08994,-0.10857 -0.02957,0.0366 -0.05972,0.0726 -0.08994,0.10857 z"
         id="path1001"
         style="stroke-width:0.447059" /><path
         fill="none"
         d="m 37.983429,114.72184 c 0.02045,-0.0286 0.04084,-0.0572 0.0609,-0.0862 -0.02006,0.029 -0.04051,0.0576 -0.0609,0.0862 z"
         id="path1003"
         style="stroke-width:0.447059" /><path
         fill="none"
         d="m 37.871342,114.87477 c 0.02195,-0.0292 0.0439,-0.0584 0.06546,-0.0879 -0.02149,0.0295 -0.04351,0.0587 -0.06546,0.0879 z"
         id="path1005"
         style="stroke-width:0.447059" /><path
         fill="none"
         d="m 37.753458,115.0273 c 0.02429,-0.0305 0.04859,-0.0611 0.07236,-0.0921 -0.02377,0.0309 -0.04807,0.0615 -0.07236,0.0921 z"
         id="path1007"
         style="stroke-width:0.447059" /><path
         fill="none"
         d="m 38.872377,113.07284 c 0.02286,-0.059 0.045,-0.11841 0.06643,-0.1782 -0.02143,0.0598 -0.04357,0.11919 -0.06643,0.1782 z"
         id="path1009"
         style="stroke-width:0.447059" /><path
         fill="none"
         d="m 39.389437,110.50453 c 0.0014,-0.0448 0.0021,-0.0898 0.0029,-0.13481 -7.17e-4,0.045 -0.0014,0.0901 -0.0029,0.13481 z"
         id="path1011"
         style="stroke-width:0.447059" /><path
         fill="none"
         d="m 39.366186,110.90749 c 0.0032,-0.0384 0.0058,-0.077 0.0084,-0.11561 -0.0027,0.0386 -0.0053,0.0772 -0.0084,0.11561 z"
         id="path1013"
         style="stroke-width:0.447059" /><path
         fill="none"
         d="m 39.380254,110.70689 c 0.0023,-0.0403 0.004,-0.0809 0.0057,-0.1214 -0.0018,0.0405 -0.0034,0.081 -0.0057,0.1214 z"
         id="path1015"
         style="stroke-width:0.447059" /><path
         fill="none"
         d="m 39.347168,111.10659 c 0.004,-0.0372 0.0076,-0.0746 0.01107,-0.11202 -0.0035,0.0375 -0.007,0.0748 -0.01107,0.11202 z"
         id="path1017"
         style="stroke-width:0.447059" /><path
         fill="none"
         d="m 30.12208,101.45035 c -0.03133,0.002 -0.06246,0.004 -0.09366,0.006 0.0312,-0.002 0.06233,-0.004 0.09366,-0.006 z"
         id="path1019"
         style="stroke-width:0.447059" /><path
         fill="none"
         d="m 30.773958,101.44188 c -0.02436,-6.5e-4 -0.04852,-6.5e-4 -0.07282,-10e-4 0.02423,3.9e-4 0.04846,3.9e-4 0.07282,10e-4 z"
         id="path1021"
         style="stroke-width:0.447059" /><path
         fill="none"
         d="m 38.947992,112.86801 c 0.01804,-0.051 0.03576,-0.10213 0.05282,-0.15364 -0.017,0.0515 -0.03471,0.10271 -0.05282,0.15364 z"
         id="path1023"
         style="stroke-width:0.447059" /><path
         fill="none"
         d="m 30.337918,101.44188 c -0.03068,7.8e-4 -0.06122,0.002 -0.09183,0.003 0.03061,-0.001 0.06116,-0.003 0.09183,-0.003 z"
         id="path1025"
         style="stroke-width:0.447059" /><path
         fill="none"
         d="m 39.323396,111.304 c 0.0048,-0.0364 0.0093,-0.073 0.01368,-0.10962 -0.0044,0.0367 -0.0089,0.0732 -0.01368,0.10962 z"
         id="path1027"
         style="stroke-width:0.447059" /><path
         fill="none"
         d="m 39.080139,112.45769 c 0.01075,-0.0368 0.02149,-0.0735 0.03172,-0.11059 -0.01023,0.0371 -0.02097,0.0738 -0.03172,0.11059 z"
         id="path1029"
         style="stroke-width:0.447059" /><path
         fill="none"
         d="m 39.294804,111.49984 c 0.0057,-0.0359 0.01107,-0.0719 0.01628,-0.10799 -0.0051,0.0361 -0.01055,0.072 -0.01628,0.10799 z"
         id="path1031"
         style="stroke-width:0.447059" /><path
         fill="none"
         d="m 39.132959,112.26784 c 0.0094,-0.0358 0.01889,-0.0716 0.02788,-0.10759 -0.009,0.036 -0.01843,0.0718 -0.02788,0.10759 z"
         id="path1033"
         style="stroke-width:0.447059" /><path
         fill="none"
         d="m 39.021132,112.65061 c 0.01263,-0.0395 0.02533,-0.0789 0.03738,-0.1188 -0.01205,0.0398 -0.02475,0.0793 -0.03738,0.1188 z"
         id="path1035"
         style="stroke-width:0.447059" /><path
         fill="none"
         d="m 39.261458,111.69399 c 0.0066,-0.0356 0.0129,-0.0712 0.01902,-0.10694 -0.0061,0.0357 -0.01244,0.0714 -0.01902,0.10694 z"
         id="path1037"
         style="stroke-width:0.447059" /><path
         fill="none"
         d="m 39.223423,111.88658 c 0.0074,-0.0354 0.01478,-0.0708 0.02175,-0.10636 -0.007,0.0356 -0.01433,0.071 -0.02175,0.10636 z"
         id="path1039"
         style="stroke-width:0.447059" /><path
         fill="none"
         d="m 39.180568,112.07773 c 0.0084,-0.0354 0.01674,-0.0709 0.02462,-0.10642 -0.0079,0.0356 -0.01622,0.071 -0.02462,0.10642 z"
         id="path1041"
         style="stroke-width:0.447059" /><path
         fill="none"
         d="m 25.551577,103.23006 c -0.02078,0.0175 -0.04175,0.0349 -0.06239,0.0526 0.02065,-0.0177 0.04162,-0.035 0.06239,-0.0526 z"
         id="path1043"
         style="stroke-width:0.447059" /><path
         fill="none"
         d="m 47.901622,202.95986 c 0.01609,-0.0185 0.03224,-0.0369 0.04774,-0.0557 -0.01557,0.0189 -0.03172,0.0373 -0.04774,0.0557 z"
         id="path1045"
         style="stroke-width:0.447059" /><path
         fill="none"
         d="m 26.884966,200.56148 c 0.0057,-0.0285 0.01088,-0.0572 0.01576,-0.086 -0.0049,0.0288 -0.01003,0.0575 -0.01576,0.086 z"
         id="path1047"
         style="stroke-width:0.447059" /><path
         fill="none"
         d="m 26.907696,200.4348 c 0.0066,-0.0425 0.0125,-0.0852 0.01726,-0.12837 -0.0048,0.0432 -0.01062,0.0859 -0.01726,0.12837 z"
         id="path1049"
         style="stroke-width:0.447059" /><path
         fill="none"
         d="m 48.247197,202.45908 c 0.01159,-0.0216 0.02338,-0.043 0.03445,-0.0649 -0.01101,0.0219 -0.02286,0.0433 -0.03445,0.0649 z"
         id="path1051"
         style="stroke-width:0.447059" /><path
         fill="none"
         d="m 48.088021,202.71966 c 0.01387,-0.0201 0.02794,-0.0401 0.04129,-0.0606 -0.01342,0.0205 -0.02742,0.0405 -0.04129,0.0606 z"
         id="path1053"
         style="stroke-width:0.447059" /><path
         fill="none"
         d="m 48.171191,202.59175 c 0.0127,-0.0208 0.02566,-0.0416 0.03784,-0.0628 -0.01218,0.0212 -0.02514,0.0419 -0.03784,0.0628 z"
         id="path1055"
         style="stroke-width:0.447059" /><path
         fill="none"
         d="m 26.329805,201.75028 c 0.01921,-0.0238 0.03784,-0.048 0.05627,-0.0724 -0.01837,0.0244 -0.03706,0.0486 -0.05627,0.0724 z"
         id="path1057"
         style="stroke-width:0.447059" /><path
         fill="none"
         d="m 47.998078,202.84243 c 0.01498,-0.0193 0.03009,-0.0385 0.04455,-0.0582 -0.01446,0.0197 -0.02957,0.0389 -0.04455,0.0582 z"
         id="path1059"
         style="stroke-width:0.447059" /><path
         fill="none"
         d="m 26.85657,200.68705 c 0.0065,-0.0263 0.01263,-0.0526 0.0185,-0.0792 -0.0058,0.0266 -0.01192,0.0529 -0.0185,0.0792 z"
         id="path1061"
         style="stroke-width:0.447059" /><path
         fill="none"
         d="m 26.488785,201.53171 c 0.01648,-0.0252 0.03276,-0.0506 0.04846,-0.0764 -0.0157,0.0259 -0.03191,0.0512 -0.04846,0.0764 z"
         id="path1063"
         style="stroke-width:0.447059" /><path
         fill="none"
         d="m 26.55919,201.41819 c 0.01329,-0.0227 0.02638,-0.0455 0.03908,-0.0687 -0.0127,0.0231 -0.02579,0.046 -0.03908,0.0687 z"
         id="path1065"
         style="stroke-width:0.447059" /><path
         fill="none"
         d="m 26.403401,201.65526 c 0.02371,-0.0321 0.0467,-0.0648 0.06897,-0.0981 -0.02227,0.0333 -0.04527,0.066 -0.06897,0.0981 z"
         id="path1067"
         style="stroke-width:0.447059" /><path
         fill="none"
         d="m 26.725009,201.08655 c 0.01576,-0.0378 0.03081,-0.0759 0.04494,-0.11469 -0.01413,0.0387 -0.02918,0.0769 -0.04494,0.11469 z"
         id="path1069"
         style="stroke-width:0.447059" /><path
         fill="none"
         d="m 26.620021,201.30903 c 0.01218,-0.0232 0.02403,-0.0466 0.03556,-0.0702 -0.01159,0.0236 -0.02338,0.047 -0.03556,0.0702 z"
         id="path1071"
         style="stroke-width:0.447059" /><path
         fill="none"
         d="m 26.776786,200.95186 c 0.01153,-0.0323 0.0226,-0.0648 0.03296,-0.0977 -0.01036,0.0328 -0.02143,0.0654 -0.03296,0.0977 z"
         id="path1073"
         style="stroke-width:0.447059" /><path
         fill="none"
         d="m 26.67499,201.1989 c 0.01237,-0.0264 0.02423,-0.0531 0.03582,-0.0799 -0.01159,0.0268 -0.02338,0.0535 -0.03582,0.0799 z"
         id="path1075"
         style="stroke-width:0.447059" /><path
         fill="none"
         d="m 26.822051,200.81314 c 0.0079,-0.0265 0.01563,-0.0532 0.0228,-0.0801 -0.0072,0.0269 -0.01491,0.0536 -0.0228,0.0801 z"
         id="path1077"
         style="stroke-width:0.447059" /><path
         fill="none"
         d="m 48.316169,202.32153 c 0.01035,-0.0221 0.02097,-0.0442 0.03074,-0.0666 -0.0098,0.0225 -0.02045,0.0445 -0.03074,0.0666 z"
         id="path1079"
         style="stroke-width:0.447059" /><path
         fill="none"
         d="m 41.048928,137.67147 c 0.0014,-0.007 0.0037,-0.0128 0.0055,-0.0193 -0.0018,0.006 -0.0041,0.0125 -0.0055,0.0193 z"
         id="path1081"
         style="stroke-width:0.447059" /><path
         fill="none"
         d="m 41.095886,137.56387 c 0.0042,-0.006 0.0086,-0.0116 0.01322,-0.0171 -0.0046,0.006 -0.009,0.0112 -0.01322,0.0171 z"
         id="path1083"
         style="stroke-width:0.447059" /><path
         fill="none"
         d="m 20.963033,119.70325 c 0.06734,-0.0357 0.135664,-0.0697 0.204505,-0.10297 -0.06884,0.0333 -0.137162,0.0673 -0.204505,0.10297 z"
         id="path1085"
         style="stroke-width:0.447059" /><path
         fill="none"
         d="m 40.885193,149.55956 7.660686,51.1112 c 3.26e-4,0.002 5.21e-4,0.005 8.47e-4,0.007 -3.26e-4,-0.002 -5.21e-4,-0.005 -8.47e-4,-0.007 z"
         id="path1087"
         style="stroke-width:0.447059" /><path
         fill="none"
         d="m 48.570433,200.89943 c -0.0014,-0.0195 -0.0021,-0.0388 -0.0039,-0.0584 0.0018,0.0196 0.0025,0.0389 0.0039,0.0584 z"
         id="path1089"
         style="stroke-width:0.447059" /><path
         fill="none"
         d="m 41.06749,137.6137 c 0.003,-0.007 0.0064,-0.0132 0.0099,-0.0195 -0.0035,0.006 -0.0069,0.0127 -0.0099,0.0195 z"
         id="path1091"
         style="stroke-width:0.447059" /><path
         fill="none"
         d="m 48.477103,201.8836 c 0.0065,-0.0236 0.01342,-0.0471 0.01934,-0.071 -0.0059,0.0238 -0.0129,0.0473 -0.01934,0.071 z"
         id="path1093"
         style="stroke-width:0.447059" /><path
         fill="none"
         d="m 48.431317,202.03359 c 0.0078,-0.0232 0.01602,-0.0462 0.02325,-0.0698 -0.0073,0.0235 -0.01544,0.0466 -0.02325,0.0698 z"
         id="path1095"
         style="stroke-width:0.447059" /><path
         fill="none"
         d="m 48.377651,202.17941 c 0.0091,-0.0227 0.01843,-0.0451 0.02696,-0.0681 -0.0085,0.023 -0.01791,0.0455 -0.02696,0.0681 z"
         id="path1097"
         style="stroke-width:0.447059" /><path
         fill="none"
         d="m 48.514682,201.72976 c 0.0051,-0.024 0.01081,-0.0477 0.01537,-0.0719 -0.0046,0.0242 -0.01023,0.0479 -0.01537,0.0719 z"
         id="path1099"
         style="stroke-width:0.447059" /><path
         fill="none"
         d="m 48.578313,201.07795 c -3.25e-4,-0.0229 6.6e-5,-0.0457 -7.81e-4,-0.0687 8.47e-4,0.023 4.56e-4,0.0458 7.81e-4,0.0687 z"
         id="path1101"
         style="stroke-width:0.447059" /><path
         fill="none"
         d="m 48.564441,201.41135 c 0.0024,-0.0241 0.0054,-0.0481 0.0072,-0.0724 -0.0018,0.0243 -0.0048,0.0482 -0.0072,0.0724 z"
         id="path1103"
         style="stroke-width:0.447059" /><path
         fill="none"
         d="m 48.543925,201.57202 c 0.0038,-0.024 0.0081,-0.0478 0.01127,-0.072 -0.0032,0.0242 -0.0075,0.048 -0.01127,0.072 z"
         id="path1105"
         style="stroke-width:0.447059" /><path
         fill="none"
         d="m 48.57916,201.17538 c -3.91e-4,0.024 -0.0021,0.0476 -0.0031,0.0714 0.001,-0.0238 0.0027,-0.0475 0.0031,-0.0714 z"
         id="path1107"
         style="stroke-width:0.447059" /><path
         fill="none"
         d="m 23.526191,118.98272 c 0.07444,-0.005 0.149145,-0.009 0.224304,-0.0113 -0.07509,0.002 -0.149862,0.006 -0.224304,0.0113 z"
         id="path1109"
         style="stroke-width:0.447059" /><path
         fill="none"
         d="m 23.232719,119.00838 c 0.07881,-0.009 0.158068,-0.0159 0.237656,-0.0219 -0.07959,0.006 -0.15885,0.0131 -0.237656,0.0219 z"
         id="path1111"
         style="stroke-width:0.447059" /><path
         fill="none"
         d="m 22.704261,119.08934 c 0.07646,-0.015 0.153509,-0.0285 0.230948,-0.0407 -0.07744,0.0122 -0.154487,0.0257 -0.230948,0.0407 z"
         id="path1113"
         style="stroke-width:0.447059" /><path
         fill="none"
         d="m 22.98653,119.04088 c 0.06943,-0.0104 0.139181,-0.0198 0.209326,-0.028 -0.07015,0.008 -0.139898,0.0176 -0.209326,0.028 z"
         id="path1115"
         style="stroke-width:0.447059" /><path
         fill="none"
         d="m 23.774072,118.97041 c 0.08102,-0.002 0.162497,-0.003 0.244169,-0.002 -0.08167,-6.5e-4 -0.163148,-1.3e-4 -0.244169,0.002 z"
         id="path1117"
         style="stroke-width:0.447059" /><path
         fill="none"
         d="m 43.335938,122.21482 c 0.12114,0.13899 0.237331,0.28266 0.34805,0.43077 -0.110719,-0.14811 -0.226845,-0.29178 -0.34805,-0.43077 z"
         id="path1119"
         style="stroke-width:0.447059" /><path
         fill="none"
         d="m 41.426872,120.64768 c 0.159241,0.0913 0.31503,0.18849 0.467107,0.29133 -0.152077,-0.10284 -0.307866,-0.20002 -0.467107,-0.29133 z"
         id="path1121"
         style="stroke-width:0.447059" /><path
         fill="none"
         d="m 24.077053,118.96891 c 0.08278,0.001 0.165754,0.004 0.249184,0.008 -0.08343,-0.004 -0.166405,-0.007 -0.249184,-0.008 z"
         id="path1123"
         style="stroke-width:0.447059" /><path
         fill="none"
         d="m 21.447789,119.47308 c 0.065,-0.0275 0.130584,-0.0538 0.19669,-0.0792 -0.06611,0.0254 -0.131756,0.0517 -0.19669,0.0792 z"
         id="path1125"
         style="stroke-width:0.447059" /><path
         fill="none"
         d="m 21.216646,119.57676 c 0.06904,-0.0326 0.138595,-0.0643 0.208999,-0.0945 -0.0704,0.0302 -0.139962,0.0619 -0.208999,0.0945 z"
         id="path1127"
         style="stroke-width:0.447059" /><path
         fill="none"
         d="m 26.251845,201.84231 c 0.01732,-0.0196 0.03426,-0.0395 0.05106,-0.0596 -0.0168,0.0201 -0.03374,0.04 -0.05106,0.0596 z"
         id="path1129"
         style="stroke-width:0.447059" /><path
         fill="none"
         d="m 22.45944,119.14248 c 0.06643,-0.0157 0.13332,-0.0304 0.200533,-0.044 -0.06728,0.0136 -0.134101,0.0283 -0.200533,0.044 z"
         id="path1131"
         style="stroke-width:0.447059" /><path
         fill="none"
         d="m 54.375655,157.26173 c -0.006,0.12856 -0.01863,0.25641 -0.03804,0.38309 0.01941,-0.12668 0.03204,-0.25453 0.03804,-0.38309 z"
         id="path1133"
         style="stroke-width:0.447059" /><path
         fill="none"
         d="m 22.190782,119.21191 c 0.07412,-0.021 0.14869,-0.0406 0.223849,-0.059 -0.07516,0.0184 -0.149732,0.0381 -0.223849,0.059 z"
         id="path1135"
         style="stroke-width:0.447059" /><path
         fill="none"
         d="m 21.694368,119.3748 c 0.07164,-0.0268 0.143805,-0.0526 0.21662,-0.0769 -0.07288,0.0244 -0.145043,0.0501 -0.21662,0.0769 z"
         id="path1137"
         style="stroke-width:0.447059" /><path
         fill="none"
         d="m 21.945962,119.28668 c 0.06506,-0.0213 0.130649,-0.0414 0.196625,-0.0607 -0.06604,0.0193 -0.131561,0.0395 -0.196625,0.0607 z"
         id="path1139"
         style="stroke-width:0.447059" /><path
         fill="none"
         d="m 54.288772,157.89973 c 2.61e-4,-0.001 5.86e-4,-0.002 8.47e-4,-0.003 0.01908,-0.0832 0.03504,-0.16712 0.048,-0.25159 -0.01296,0.0845 -0.02892,0.16836 -0.048,0.25159 -2.61e-4,0.001 -5.86e-4,0.002 -8.47e-4,0.003 z"
         id="path1141"
         style="stroke-width:0.447059" /><path
         fill="none"
         d="m 53.717459,159.13009 c -0.01778,0.0224 -0.03641,0.0439 -0.05484,0.0657 0.0185,-0.0217 0.03706,-0.0433 0.05484,-0.0657 z"
         id="path1143"
         style="stroke-width:0.447059" /><path
         fill="none"
         d="m 15.234012,156.73581 c 0.0022,-0.003 0.0044,-0.007 0.0066,-0.01 -0.0021,0.003 -0.0044,0.007 -0.0066,0.01 z"
         id="path1145"
         style="stroke-width:0.447059" /><path
         fill="none"
         d="m 14.955911,157.11239 c 0.0049,-0.006 0.0098,-0.0116 0.01465,-0.0175 -0.0048,0.006 -0.0098,0.0117 -0.01465,0.0175 z"
         id="path1147"
         style="stroke-width:0.447059" /><path
         fill="none"
         d="m 15.098153,156.93107 c 0.0037,-0.005 0.0075,-0.01 0.0112,-0.0151 -0.0037,0.005 -0.0075,0.01 -0.0112,0.0151 z"
         id="path1149"
         style="stroke-width:0.447059" /><path
         fill="none"
         d="m 21.529005,136.62771 c 0.0067,-0.0222 0.0157,-0.0419 0.02573,-0.0603 -0.01,0.0184 -0.01895,0.0382 -0.02573,0.0603 z"
         id="path1151"
         style="stroke-width:0.447059" /><path
         fill="none"
         d="m 21.564566,136.55144 c 0.0078,-0.0124 0.01628,-0.0241 0.02553,-0.0347 -0.0092,0.0106 -0.01765,0.0222 -0.02553,0.0347 z"
         id="path1153"
         style="stroke-width:0.447059" /><path
         fill="none"
         d="m 53.92952,158.82164 c -0.01446,0.0246 -0.03002,0.0481 -0.04513,0.0721 0.01511,-0.0239 0.03061,-0.0475 0.04513,-0.0721 z"
         id="path1155"
         style="stroke-width:0.447059" /><path
         fill="none"
         d="m 54.103219,158.47743 c -0.01094,0.0258 -0.02312,0.0505 -0.03471,0.0757 0.01153,-0.0253 0.02371,-0.0499 0.03471,-0.0757 z"
         id="path1157"
         style="stroke-width:0.447059" /><path
         fill="none"
         d="m 53.828244,158.98042 c -0.01615,0.0236 -0.03328,0.0462 -0.05015,0.0692 0.01687,-0.023 0.03393,-0.0457 0.05015,-0.0692 z"
         id="path1159"
         style="stroke-width:0.447059" /><path
         fill="none"
         d="m 54.175317,158.29227 c -0.009,0.0253 -0.01921,0.0496 -0.02872,0.0745 0.0096,-0.0249 0.0198,-0.0492 0.02872,-0.0745 z"
         id="path1161"
         style="stroke-width:0.447059" /><path
         fill="none"
         d="m 54.021222,158.65399 c -0.01277,0.0253 -0.02664,0.0497 -0.04006,0.0745 0.01335,-0.0248 0.02722,-0.0491 0.04006,-0.0745 z"
         id="path1163"
         style="stroke-width:0.447059" /><path
         fill="none"
         d="m 54.237516,158.09844 c -0.0064,0.0223 -0.01413,0.0437 -0.02091,0.0657 0.0068,-0.022 0.01446,-0.0433 0.02091,-0.0657 z"
         id="path1165"
         style="stroke-width:0.447059" /><g
         id="g2182"
         transform="matrix(0.81983625,0,0,0.81983625,10.979648,28.13155)"
         style="fill:#d7d7f4;stroke-width:1.21976"><path
           fill="#ff0000"
           d="m 26.924955,200.30643 c -0.0048,0.0432 -0.01068,0.086 -0.01726,0.12837 -0.0021,0.0137 -0.0047,0.0272 -0.007,0.0407 -0.0049,0.0288 -0.01003,0.0575 -0.01576,0.086 -0.0031,0.0156 -0.0065,0.0309 -0.0099,0.0464 -0.0058,0.0266 -0.01198,0.0529 -0.0185,0.0792 -0.0038,0.0154 -0.0077,0.0307 -0.01179,0.046 -0.0072,0.0269 -0.01485,0.0536 -0.0228,0.0801 -0.0041,0.0137 -0.008,0.0274 -0.01224,0.041 -0.01036,0.0329 -0.02143,0.0655 -0.03296,0.0977 -0.0023,0.007 -0.0045,0.0134 -0.0069,0.02 -0.01413,0.0387 -0.02918,0.0769 -0.04494,0.11469 -0.0046,0.0109 -0.0095,0.0216 -0.0142,0.0324 -0.01159,0.0268 -0.02345,0.0536 -0.03582,0.0799 -0.0063,0.0134 -0.0129,0.0267 -0.01941,0.04 -0.01153,0.0236 -0.02338,0.047 -0.03556,0.0701 -0.0072,0.0136 -0.01439,0.0271 -0.02175,0.0406 -0.0127,0.0231 -0.02573,0.0459 -0.03908,0.0687 -0.0073,0.0124 -0.01446,0.0249 -0.02188,0.0371 -0.0157,0.0258 -0.03198,0.0512 -0.04846,0.0764 -0.0055,0.008 -0.01081,0.0171 -0.01641,0.0255 -0.02234,0.0333 -0.04533,0.066 -0.06897,0.0981 -0.0056,0.008 -0.01159,0.015 -0.01726,0.0226 -0.01843,0.0244 -0.03706,0.0486 -0.05627,0.0724 -0.0089,0.0109 -0.01791,0.0216 -0.0269,0.0324 -0.01674,0.0201 -0.03374,0.04 -0.05106,0.0596 -0.01,0.0113 -0.02,0.0224 -0.03016,0.0335 -0.0076,0.008 -0.01485,0.0169 -0.02253,0.0251 l 1.628555,-1.73706 c 0.394096,-0.42041 0.656892,-0.96925 0.725864,-1.59443 l 4.158692,-37.7002 -0.809816,-5.68532 z"
           id="path1167"
           style="fill:#d7d7f4;stroke-width:0.545303" /><path
           fill="#ff0000"
           d="m 21.828078,136.4204 c -0.08929,-0.005 -0.177216,0.0263 -0.237982,0.0963 -0.0092,0.0106 -0.01765,0.0223 -0.02553,0.0347 -0.0033,0.005 -0.0068,0.0104 -0.0098,0.016 -0.01003,0.0184 -0.01895,0.0382 -0.02573,0.0603 l -5.841173,19.13755 c -0.08122,0.26514 -0.186204,0.52221 -0.323692,0.7598 -0.03992,0.0688 -0.08115,0.13566 -0.12355,0.20086 -0.0021,0.003 -0.0044,0.007 -0.0066,0.01 -0.04045,0.0617 -0.082,0.12185 -0.124657,0.18021 -0.0037,0.005 -0.0075,0.01 -0.0112,0.015 -0.04149,0.0563 -0.08402,0.11092 -0.127588,0.1638 -0.0048,0.006 -0.0098,0.0117 -0.01465,0.0175 -0.04298,0.0515 -0.08688,0.10147 -0.131756,0.14967 -0.0026,0.003 -0.0051,0.006 -0.0077,0.009 l 1.628555,-1.73706 c 0.202421,-0.21591 0.385434,-0.4662 0.547671,-0.74573 0.137487,-0.23759 0.242476,-0.49466 0.323692,-0.7598 l 4.898884,-16.05023 -0.05777,-1.23036 c -0.0094,-0.20014 -0.170508,-0.31874 -0.329423,-0.32714 z"
           id="path1169"
           style="fill:#d7d7f4;stroke-width:0.545303" /><path
           fill="#ff0000"
           d="m 41.35992,137.44404 c -0.09555,-0.005 -0.189852,0.0307 -0.250813,0.10277 -0.0046,0.005 -0.009,0.0111 -0.01322,0.0171 -0.0068,0.01 -0.01283,0.0197 -0.0185,0.0302 -0.0035,0.006 -0.0069,0.0128 -0.0099,0.0195 -0.0053,0.0121 -0.0093,0.0251 -0.01303,0.0385 -0.0018,0.006 -0.0041,0.0126 -0.0055,0.0193 -0.0043,0.0206 -0.0071,0.0424 -0.0074,0.0658 l -0.15631,11.82225 7.660686,51.1112 c 3.91e-4,0.002 5.21e-4,0.005 8.47e-4,0.007 0.008,0.0546 0.01472,0.10896 0.01973,0.16302 0.0018,0.0196 0.0025,0.0389 0.0039,0.0584 0.0027,0.0367 0.0057,0.0734 0.0071,0.10981 8.46e-4,0.0231 4.56e-4,0.0458 7.81e-4,0.0687 4.56e-4,0.0326 0.0014,0.0652 8.47e-4,0.0974 -3.91e-4,0.024 -0.0021,0.0476 -0.0031,0.0714 -0.0013,0.0307 -0.0021,0.0617 -0.0044,0.0922 -0.0018,0.0243 -0.0048,0.0482 -0.0072,0.0724 -0.0029,0.0296 -0.0054,0.0593 -0.0092,0.0886 -0.0032,0.0242 -0.0075,0.048 -0.01127,0.072 -0.0045,0.0287 -0.0086,0.0575 -0.01394,0.0858 -0.0046,0.0242 -0.01016,0.0479 -0.01537,0.0719 -0.0059,0.0277 -0.01153,0.0555 -0.0183,0.0829 -0.0059,0.0239 -0.01283,0.0473 -0.01934,0.071 -0.0074,0.0268 -0.01439,0.0537 -0.02253,0.0802 -0.0072,0.0235 -0.01544,0.0466 -0.02325,0.0698 -0.0087,0.026 -0.01719,0.0521 -0.0267,0.0778 -0.0085,0.023 -0.01791,0.0455 -0.02696,0.0681 -0.01009,0.0252 -0.01993,0.0505 -0.03074,0.0754 -0.0098,0.0225 -0.02038,0.0445 -0.03074,0.0666 -0.01133,0.0243 -0.02247,0.0487 -0.03452,0.0725 -0.01101,0.022 -0.02286,0.0434 -0.03445,0.0649 -0.01257,0.0234 -0.02501,0.0469 -0.03823,0.0699 -0.01218,0.0212 -0.02514,0.0419 -0.03784,0.0628 -0.01381,0.0225 -0.02749,0.0452 -0.04188,0.0673 -0.01335,0.0205 -0.02736,0.0404 -0.04129,0.0606 -0.01492,0.0216 -0.02983,0.0433 -0.04533,0.0645 -0.01446,0.0197 -0.02957,0.0389 -0.04455,0.0582 -0.01609,0.0207 -0.03204,0.0414 -0.04872,0.0617 -0.01557,0.0189 -0.03172,0.0373 -0.04774,0.0558 -0.01713,0.0197 -0.03426,0.0394 -0.05197,0.0586 -0.0053,0.006 -0.01022,0.0119 -0.01557,0.0176 l 1.628555,-1.73706 c 0.559133,-0.59632 0.849414,-1.44352 0.711861,-2.36529 l -7.660555,-51.11101 0.09607,-7.26764 -0.943331,-2.8718 c -0.051,-0.15481 -0.179365,-0.23232 -0.306562,-0.23902 z"
           id="path1171"
           style="fill:#d7d7f4;stroke-width:0.545303" /><path
           fill="#ff0000"
           d="m 55.819047,154.107 -9.371499,-30.95875 c -0.879895,-2.90951 -3.551427,-5.02061 -6.551276,-5.17777 l -6.214428,-0.32571 c -0.760318,0.192 -1.569287,0.27472 -2.409909,0.23069 -0.840557,-0.044 -1.653694,-0.2118 -2.421762,-0.48391 l -2.895316,-0.15175 c -1.950618,-0.10225 -3.734311,0.63768 -4.958804,1.94378 l -1.628554,1.73706 c 0.04416,-0.0471 0.08923,-0.0932 0.134752,-0.13879 0.01062,-0.0106 0.02143,-0.021 0.03217,-0.0315 0.04709,-0.0464 0.09489,-0.092 0.143414,-0.13684 0.01055,-0.01 0.02091,-0.0197 0.03152,-0.0293 0.05542,-0.0504 0.111827,-0.0997 0.16901,-0.1481 0.01277,-0.0108 0.02566,-0.0214 0.03849,-0.032 0.05171,-0.043 0.104142,-0.0852 0.157287,-0.12642 0.0089,-0.007 0.01765,-0.0141 0.02664,-0.0209 0.05972,-0.0458 0.120424,-0.0903 0.181841,-0.13391 0.01439,-0.0102 0.02885,-0.0203 0.04331,-0.0303 0.05803,-0.0405 0.116646,-0.0801 0.176044,-0.11854 0.0056,-0.004 0.01107,-0.007 0.01667,-0.011 0.06389,-0.041 0.12876,-0.0806 0.19428,-0.11919 0.01557,-0.009 0.0312,-0.0183 0.04689,-0.0274 0.06637,-0.0384 0.133254,-0.0761 0.201184,-0.11209 6.51e-4,-3.3e-4 0.0013,-6.5e-4 0.002,-9.8e-4 0.06734,-0.0357 0.135664,-0.0697 0.204505,-0.10297 0.01635,-0.008 0.0327,-0.0158 0.04917,-0.0236 0.06904,-0.0326 0.138595,-0.0643 0.208999,-0.0945 0.0074,-0.003 0.01478,-0.006 0.02214,-0.009 0.065,-0.0275 0.130584,-0.0538 0.19669,-0.0792 0.01661,-0.006 0.03322,-0.0128 0.04989,-0.0191 0.07164,-0.0268 0.143805,-0.0526 0.21662,-0.0769 0.01159,-0.004 0.02332,-0.007 0.03497,-0.0113 0.06506,-0.0213 0.130649,-0.0414 0.196625,-0.0607 0.01609,-0.005 0.03211,-0.01 0.04826,-0.0141 0.07412,-0.021 0.148689,-0.0406 0.223848,-0.059 0.01485,-0.004 0.02983,-0.007 0.04474,-0.0105 0.06643,-0.0157 0.13332,-0.0304 0.200533,-0.044 0.01478,-0.003 0.0295,-0.006 0.04429,-0.009 0.07646,-0.015 0.153509,-0.0285 0.230948,-0.0407 0.01706,-0.003 0.03426,-0.005 0.05139,-0.008 0.06943,-0.0104 0.139181,-0.0198 0.209325,-0.028 0.01231,-0.001 0.02449,-0.003 0.0368,-0.004 0.07881,-0.009 0.158068,-0.0159 0.237656,-0.0219 0.01856,-10e-4 0.03719,-0.003 0.05582,-0.004 0.07444,-0.005 0.149145,-0.009 0.224304,-0.0113 0.0079,-2.6e-4 0.0157,-7.1e-4 0.02358,-9.7e-4 0.08102,-0.002 0.162497,-0.003 0.244169,-0.002 0.0196,1.3e-4 0.03921,3.9e-4 0.05881,7.2e-4 0.08278,0.001 0.165754,0.004 0.249184,0.008 l 13.941481,0.73061 c 1.12491,0.059 2.20371,0.39267 3.159154,0.94021 0.159241,0.0912 0.31503,0.18848 0.467107,0.29132 0.532105,0.35997 1.017903,0.7893 1.441959,1.27582 0.12114,0.13898 0.237331,0.28266 0.34805,0.43076 0.276864,0.37013 0.520056,0.76774 0.723911,1.18835 0.163083,0.33645 0.301092,0.6877 0.411095,1.05138 l 9.371498,30.95862 c 0.07698,0.25394 0.131626,0.51237 0.161846,0.77139 0.01009,0.0864 0.01739,0.17272 0.02195,0.25902 0.0068,0.12947 0.0074,0.25869 0.0013,0.38725 -0.006,0.12857 -0.01863,0.25642 -0.03804,0.38309 -0.01296,0.0845 -0.02892,0.16836 -0.048,0.2516 -2.61e-4,0.001 -5.86e-4,0.002 -8.47e-4,0.003 -0.01544,0.0676 -0.03256,0.13384 -0.05126,0.19877 -0.0064,0.0223 -0.01413,0.0437 -0.02091,0.0657 -0.01335,0.043 -0.02644,0.0862 -0.04129,0.12804 -0.009,0.0253 -0.01921,0.0496 -0.02872,0.0745 -0.0142,0.0371 -0.02807,0.0746 -0.04344,0.11072 -0.01094,0.0258 -0.02312,0.0505 -0.03471,0.0757 -0.0155,0.0339 -0.03074,0.0679 -0.04728,0.10082 -0.01277,0.0253 -0.02664,0.0497 -0.04005,0.0745 -0.01693,0.0313 -0.03367,0.0628 -0.05165,0.0933 -0.01446,0.0246 -0.03002,0.0481 -0.04513,0.0721 -0.01843,0.0291 -0.03673,0.0584 -0.05608,0.0866 -0.01615,0.0236 -0.03328,0.0462 -0.05015,0.0692 -0.01993,0.0271 -0.03979,0.0543 -0.06063,0.0805 -0.01778,0.0224 -0.03641,0.0439 -0.05484,0.0657 -0.02149,0.0253 -0.04292,0.0505 -0.06532,0.0749 -0.0064,0.007 -0.01224,0.0146 -0.01876,0.0216 l 1.628554,-1.73705 c 0.34271,-0.36557 0.583427,-0.83457 0.71108,-1.39579 0.152793,-0.66581 0.106291,-1.37526 -0.09906,-2.05235 z"
           id="path1173"
           style="fill:#d7d7f4;stroke-width:0.545303" /><path
           fill="#ff0000"
           d="m 25.056205,103.6861 c 0.04631,-0.0468 0.09326,-0.0929 0.140809,-0.1384 0.01114,-0.0106 0.02253,-0.0209 0.03367,-0.0315 0.0366,-0.0346 0.07327,-0.069 0.110589,-0.1029 0.01804,-0.0164 0.03654,-0.0324 0.05477,-0.0486 0.03094,-0.0276 0.06181,-0.0551 0.0932,-0.0821 0.02058,-0.0177 0.04155,-0.035 0.06239,-0.0526 0.02957,-0.0249 0.05914,-0.0498 0.0891,-0.0742 0.02201,-0.018 0.04442,-0.0356 0.06663,-0.0533 0.02931,-0.0234 0.05868,-0.0468 0.08838,-0.0697 0.02312,-0.0178 0.0465,-0.0354 0.06982,-0.0529 0.02931,-0.0221 0.05862,-0.0442 0.08825,-0.0658 0.0241,-0.0176 0.04839,-0.0349 0.07268,-0.0522 0.02957,-0.0211 0.05914,-0.042 0.08903,-0.0627 0.02468,-0.0171 0.04956,-0.0339 0.07451,-0.0507 0.03002,-0.0203 0.06018,-0.0403 0.09053,-0.0601 0.0252,-0.0165 0.05054,-0.0328 0.07594,-0.0489 0.03068,-0.0195 0.06148,-0.0388 0.09248,-0.0578 0.02553,-0.0157 0.05113,-0.0314 0.07685,-0.0468 0.03146,-0.0188 0.06311,-0.0374 0.09483,-0.0558 0.02579,-0.015 0.05165,-0.0299 0.07763,-0.0446 0.03224,-0.0182 0.06474,-0.036 0.0973,-0.0537 0.02599,-0.0142 0.05197,-0.0284 0.07816,-0.0423 0.03322,-0.0176 0.06669,-0.0347 0.100168,-0.0518 0.02599,-0.0133 0.05184,-0.0266 0.07803,-0.0397 0.03478,-0.0173 0.06988,-0.034 0.104988,-0.0507 0.02527,-0.0121 0.05041,-0.0244 0.07588,-0.0362 0.03719,-0.0173 0.07477,-0.0339 0.112348,-0.0505 0.02384,-0.0106 0.04754,-0.0215 0.07151,-0.0318 0.04299,-0.0186 0.08636,-0.0364 0.129803,-0.0542 0.01889,-0.008 0.03751,-0.0158 0.05647,-0.0234 0.06259,-0.0251 0.125569,-0.0494 0.189004,-0.0729 0.0097,-0.004 0.01954,-0.007 0.02924,-0.0104 0.0538,-0.0197 0.107789,-0.039 0.162237,-0.0576 0.02266,-0.008 0.04559,-0.0149 0.06839,-0.0224 0.04181,-0.0138 0.08356,-0.0277 0.125699,-0.0408 0.02631,-0.008 0.05288,-0.0158 0.07933,-0.0238 0.03895,-0.0117 0.07783,-0.0234 0.117037,-0.0345 0.0282,-0.008 0.0566,-0.0154 0.08493,-0.0231 0.0379,-0.0102 0.07581,-0.0205 0.113976,-0.0302 0.02931,-0.007 0.05875,-0.0145 0.08818,-0.0216 0.03751,-0.009 0.07509,-0.0181 0.112869,-0.0266 0.03015,-0.007 0.06044,-0.0133 0.09072,-0.0197 0.03751,-0.008 0.07509,-0.016 0.112804,-0.0234 0.03061,-0.006 0.06135,-0.0119 0.09209,-0.0176 0.03777,-0.007 0.07555,-0.0139 0.11352,-0.0204 0.03113,-0.005 0.06233,-0.0104 0.09352,-0.0154 0.03797,-0.006 0.07601,-0.0118 0.114172,-0.0173 0.03146,-0.005 0.06304,-0.009 0.09463,-0.0131 0.03843,-0.005 0.07692,-0.01 0.11554,-0.0143 0.03165,-0.004 0.06324,-0.007 0.09502,-0.0107 0.03901,-0.004 0.07809,-0.008 0.117298,-0.0113 0.03165,-0.003 0.06324,-0.006 0.09502,-0.008 0.03999,-0.003 0.08011,-0.006 0.120294,-0.008 0.0312,-0.002 0.06233,-0.004 0.09365,-0.006 0.04123,-0.002 0.08265,-0.004 0.124071,-0.005 0.03061,-0.001 0.06116,-0.002 0.09183,-0.003 0.04325,-0.001 0.08669,-0.001 0.130128,-0.002 0.02905,-3.3e-4 0.05803,-9.2e-4 0.08721,-9.2e-4 0.04846,0 0.09717,9.2e-4 0.14589,0.002 0.02429,4.6e-4 0.04846,4.6e-4 0.07281,0.001 0.07321,0.002 0.146671,0.005 0.220397,0.009 4.561906,0.23909 8.321747,4.11004 8.398404,8.64531 0.0012,0.0686 0.0014,0.13697 8.47e-4,0.20503 -1.96e-4,0.023 -9.12e-4,0.0459 -0.0013,0.0688 -7.16e-4,0.045 -0.0014,0.0901 -0.0029,0.13481 -9.11e-4,0.027 -0.0023,0.0539 -0.0035,0.0809 -0.0017,0.0405 -0.0034,0.0811 -0.0057,0.1214 -0.0016,0.0285 -0.0038,0.0567 -0.0057,0.0851 -0.0026,0.0386 -0.0052,0.0772 -0.0084,0.11561 -0.0024,0.0291 -0.0052,0.0581 -0.0079,0.0871 -0.0035,0.0374 -0.007,0.0748 -0.01107,0.11202 -0.0032,0.0294 -0.0066,0.0585 -0.01009,0.0878 -0.0044,0.0366 -0.0089,0.0732 -0.01368,0.10962 -0.0039,0.0293 -0.0081,0.0585 -0.01224,0.0878 -0.0052,0.0361 -0.01062,0.0721 -0.01628,0.10798 -0.0046,0.0292 -0.0094,0.0582 -0.01433,0.0873 -0.0061,0.0357 -0.01244,0.0714 -0.01902,0.10694 -0.0053,0.0288 -0.01068,0.0576 -0.01635,0.0862 -0.007,0.0356 -0.01426,0.071 -0.02175,0.10636 -0.0059,0.0283 -0.01192,0.0566 -0.01817,0.0847 -0.0079,0.0356 -0.01622,0.071 -0.02462,0.10642 -0.0065,0.0275 -0.01296,0.0551 -0.0198,0.0825 -0.009,0.036 -0.01837,0.0718 -0.02788,0.10759 -0.007,0.0264 -0.01381,0.0529 -0.0211,0.0793 -0.01022,0.0371 -0.02097,0.0738 -0.03172,0.11059 -0.0072,0.0247 -0.0142,0.0496 -0.02162,0.0741 -0.01205,0.0398 -0.02475,0.0793 -0.03738,0.11879 -0.0068,0.0212 -0.01329,0.0427 -0.02032,0.0638 -0.017,0.0515 -0.03471,0.10265 -0.05282,0.15364 -0.0031,0.009 -0.0061,0.0178 -0.0092,0.0266 -0.02143,0.0598 -0.04357,0.11919 -0.06643,0.17819 -0.0068,0.0176 -0.01413,0.0351 -0.0211,0.0527 -0.01628,0.0411 -0.03256,0.0822 -0.0495,0.1229 -0.0094,0.0226 -0.01928,0.0449 -0.02892,0.0675 -0.01517,0.0354 -0.03022,0.0709 -0.04592,0.10604 -0.01068,0.024 -0.02182,0.0477 -0.03276,0.0716 -0.01524,0.0333 -0.03048,0.0665 -0.04618,0.0995 -0.01172,0.0245 -0.02377,0.0489 -0.03569,0.0733 -0.01563,0.0318 -0.03126,0.0637 -0.04728,0.0953 -0.0125,0.0247 -0.02534,0.0492 -0.0381,0.0737 -0.01615,0.0309 -0.03237,0.0619 -0.04891,0.0925 -0.01322,0.0246 -0.0267,0.049 -0.04019,0.0733 -0.01674,0.0302 -0.03361,0.0604 -0.0508,0.0904 -0.01387,0.0243 -0.02794,0.0485 -0.04207,0.0726 -0.01745,0.0297 -0.03504,0.0593 -0.05288,0.0887 -0.01446,0.0238 -0.02892,0.0476 -0.04364,0.0713 -0.01817,0.0293 -0.03667,0.0584 -0.05523,0.0874 -0.01491,0.0233 -0.02989,0.0467 -0.04513,0.0698 -0.01902,0.029 -0.03836,0.0577 -0.0577,0.0864 -0.01537,0.0227 -0.03061,0.0454 -0.04624,0.0679 -0.02006,0.0289 -0.04045,0.0576 -0.0609,0.0862 -0.0155,0.0217 -0.03087,0.0435 -0.04657,0.0651 -0.02156,0.0295 -0.04351,0.0587 -0.06546,0.0879 -0.01517,0.0201 -0.03016,0.0404 -0.04553,0.0604 -0.02377,0.031 -0.04813,0.0615 -0.07236,0.0921 -0.01413,0.0178 -0.02801,0.0358 -0.04227,0.0535 -0.02957,0.0365 -0.05966,0.0726 -0.08994,0.10857 -0.0094,0.0112 -0.01863,0.0227 -0.02807,0.0338 -0.03999,0.047 -0.0805,0.0935 -0.121661,0.13944 -0.01016,0.0113 -0.02058,0.0224 -0.03081,0.0337 -0.02892,0.0319 -0.05777,0.0639 -0.08727,0.0953 l 1.628554,-1.73706 c 1.300629,-1.38725 2.07508,-3.27658 2.039259,-5.39568 -0.07666,-4.53534 -3.836498,-8.406289 -8.398404,-8.645313 -2.430359,-0.127393 -4.598053,0.802003 -6.081434,2.384183 l -1.628555,1.73706 c 0.0021,-0.002 0.0043,-0.004 0.0064,-0.007 0.03367,-0.0358 0.06799,-0.0711 0.102383,-0.10629 0.01166,-0.0121 0.02293,-0.0242 0.03458,-0.0359 z"
           id="path1175"
           style="fill:#d7d7f4;stroke-width:0.545303" /></g><g
         id="g2175"
         transform="matrix(0.81983625,0,0,0.81983625,10.979648,28.13155)"
         style="fill:#00aad4;stroke-width:1.21976"><path
           d="m 53.717459,159.13009 c 0.02084,-0.0263 0.04071,-0.0534 0.06064,-0.0805 0.01687,-0.0229 0.03393,-0.0456 0.05015,-0.0692 0.01941,-0.0283 0.03765,-0.0575 0.05608,-0.0866 0.01517,-0.024 0.03068,-0.0475 0.04513,-0.0721 0.01797,-0.0304 0.03471,-0.0619 0.05165,-0.0933 0.01342,-0.0248 0.02729,-0.0491 0.04006,-0.0745 0.01654,-0.0329 0.03178,-0.0669 0.04728,-0.10082 0.01159,-0.0253 0.02371,-0.0499 0.03471,-0.0757 0.01537,-0.0361 0.02924,-0.0735 0.04344,-0.11072 0.0095,-0.0249 0.01973,-0.0492 0.02872,-0.0745 0.01479,-0.0418 0.02794,-0.085 0.04129,-0.12804 0.0068,-0.022 0.01446,-0.0434 0.02091,-0.0657 0.01869,-0.0649 0.03582,-0.13117 0.05126,-0.19877 2.61e-4,-0.001 5.86e-4,-0.002 8.47e-4,-0.003 0.01908,-0.0832 0.03504,-0.16712 0.048,-0.2516 0.01941,-0.12667 0.03198,-0.25452 0.03804,-0.38309 0.006,-0.12856 0.0055,-0.25778 -0.0013,-0.38725 -0.0046,-0.0863 -0.01192,-0.17273 -0.02195,-0.25902 -0.03022,-0.25902 -0.08486,-0.51745 -0.161846,-0.77139 L 44.819007,124.8856 c -0.110003,-0.36368 -0.247947,-0.71492 -0.411095,-1.05138 -0.20392,-0.4206 -0.447047,-0.81815 -0.723911,-1.18834 -0.110719,-0.14804 -0.22691,-0.29172 -0.34805,-0.43077 -0.424121,-0.48651 -0.909854,-0.91584 -1.441959,-1.27581 -0.152012,-0.10284 -0.307866,-0.20008 -0.467107,-0.29133 -0.955444,-0.54754 -2.034244,-0.88126 -3.159154,-0.9402 L 24.32625,118.97715 c -0.08343,-0.004 -0.166405,-0.007 -0.249184,-0.008 -0.0196,-3.2e-4 -0.03921,-5.8e-4 -0.05881,-7.1e-4 -0.08174,-5.9e-4 -0.163213,-1.3e-4 -0.244169,0.002 -0.0079,2.6e-4 -0.0157,7.2e-4 -0.02358,9.8e-4 -0.07509,0.002 -0.149862,0.006 -0.224304,0.0113 -0.01863,0.001 -0.03725,0.002 -0.05582,0.004 -0.07959,0.006 -0.158915,0.0131 -0.237656,0.0219 -0.01231,0.001 -0.02455,0.003 -0.0368,0.004 -0.07014,0.008 -0.139898,0.0177 -0.209325,0.028 -0.01713,0.003 -0.03432,0.005 -0.05139,0.008 -0.07744,0.0122 -0.154422,0.0258 -0.230948,0.0407 -0.01485,0.003 -0.0295,0.006 -0.04429,0.009 -0.06721,0.0136 -0.134101,0.0283 -0.200533,0.044 -0.01491,0.004 -0.02989,0.007 -0.04474,0.0105 -0.07516,0.0184 -0.149797,0.038 -0.223848,0.059 -0.01615,0.005 -0.03217,0.009 -0.04826,0.0141 -0.06598,0.0192 -0.131561,0.0394 -0.196625,0.0607 -0.01166,0.004 -0.02338,0.007 -0.03497,0.0113 -0.07281,0.0243 -0.144978,0.0501 -0.21662,0.0769 -0.01667,0.006 -0.03328,0.0127 -0.04989,0.0191 -0.06611,0.0254 -0.131691,0.0516 -0.19669,0.0792 -0.0074,0.003 -0.01478,0.006 -0.02214,0.009 -0.0704,0.0301 -0.139962,0.0619 -0.208999,0.0945 -0.01641,0.008 -0.03283,0.0156 -0.04917,0.0236 -0.06878,0.0333 -0.137162,0.0673 -0.204505,0.10297 -6.52e-4,3.2e-4 -0.0013,6.5e-4 -0.002,9.7e-4 -0.06793,0.036 -0.134817,0.0737 -0.201184,0.11209 -0.0157,0.009 -0.03133,0.0182 -0.04689,0.0273 -0.06546,0.0387 -0.130389,0.0782 -0.19428,0.11919 -0.0056,0.004 -0.01107,0.007 -0.01667,0.011 -0.05946,0.0384 -0.11808,0.0781 -0.176044,0.11853 -0.01446,0.0101 -0.02892,0.0201 -0.04331,0.0303 -0.06142,0.0436 -0.122118,0.0881 -0.181841,0.1339 -0.009,0.007 -0.01772,0.014 -0.02664,0.0209 -0.05315,0.0412 -0.105509,0.0834 -0.157287,0.12642 -0.01283,0.0107 -0.02579,0.0212 -0.03849,0.032 -0.05725,0.0483 -0.113585,0.0976 -0.16901,0.14811 -0.01062,0.01 -0.02097,0.0195 -0.03152,0.0293 -0.04852,0.0448 -0.09633,0.0905 -0.143414,0.13683 -0.01068,0.0106 -0.02156,0.0209 -0.03217,0.0315 -0.725604,0.72593 -1.271842,1.64139 -1.564272,2.69466 l -8.3401782,30.03059 c -0.1827524,0.65677 -0.2053522,1.36257 -0.031002,2.04551 0.2833118,1.10622 0.9712052,1.915 1.9862432,2.33827 0.401196,0.16745 0.782787,0.25622 1.14243,0.27504 0.841078,0.0441 1.561472,-0.29471 2.128747,-0.90386 0.04487,-0.0482 0.08877,-0.0982 0.131756,-0.14967 0.0049,-0.006 0.0098,-0.0116 0.01465,-0.0175 0.04357,-0.0529 0.0861,-0.10753 0.127588,-0.1638 0.0037,-0.005 0.0075,-0.01 0.0112,-0.015 0.04266,-0.0584 0.08421,-0.11847 0.124657,-0.18021 0.0022,-0.003 0.0044,-0.007 0.0066,-0.01 0.0424,-0.0651 0.08363,-0.13209 0.12355,-0.20086 0.137488,-0.23759 0.242476,-0.49466 0.323692,-0.7598 l 5.841173,-19.13755 c 0.0068,-0.0221 0.0157,-0.0419 0.02573,-0.0603 0.0031,-0.006 0.0065,-0.0107 0.0098,-0.016 0.0078,-0.0125 0.01628,-0.0241 0.02553,-0.0347 0.0607,-0.07 0.14869,-0.10095 0.237982,-0.0963 0.158915,0.008 0.31998,0.12694 0.329489,0.32714 l 0.05777,1.23036 0.498759,10.62921 -5.945119,50.39817 c -0.210367,1.78272 1.220911,3.45074 3.042118,3.54615 l 4.170415,0.21858 c 0.892399,0.0468 1.695898,-0.29921 2.240182,-0.89436 0.01016,-0.0111 0.02019,-0.0222 0.03016,-0.0335 0.01732,-0.0196 0.03426,-0.0395 0.05106,-0.0596 0.009,-0.0108 0.01811,-0.0215 0.0269,-0.0324 0.01921,-0.0238 0.03791,-0.048 0.05627,-0.0724 0.0057,-0.008 0.01166,-0.0149 0.01726,-0.0226 0.02371,-0.0321 0.0467,-0.0648 0.06897,-0.0981 0.0056,-0.008 0.01088,-0.017 0.01641,-0.0255 0.01648,-0.0252 0.03276,-0.0506 0.04846,-0.0764 0.0075,-0.0123 0.01465,-0.0248 0.02188,-0.0371 0.01329,-0.0227 0.02638,-0.0455 0.03908,-0.0686 0.0074,-0.0134 0.01459,-0.027 0.02175,-0.0406 0.01218,-0.0231 0.02403,-0.0466 0.03556,-0.0701 0.0065,-0.0133 0.01309,-0.0266 0.01941,-0.04 0.01237,-0.0264 0.02423,-0.0531 0.03582,-0.0799 0.0047,-0.0108 0.0096,-0.0215 0.0142,-0.0324 0.01576,-0.0378 0.03081,-0.076 0.04494,-0.11469 0.0024,-0.007 0.0045,-0.0134 0.0069,-0.02 0.01153,-0.0323 0.0226,-0.0648 0.03296,-0.0977 0.0043,-0.0136 0.0082,-0.0274 0.01224,-0.041 0.0079,-0.0265 0.01563,-0.0532 0.0228,-0.0801 0.0041,-0.0152 0.0079,-0.0306 0.01179,-0.046 0.0065,-0.0262 0.01263,-0.0526 0.0185,-0.0792 0.0034,-0.0154 0.0068,-0.0308 0.0099,-0.0464 0.0057,-0.0285 0.01088,-0.0572 0.01576,-0.086 0.0023,-0.0136 0.0049,-0.027 0.007,-0.0407 0.0066,-0.0425 0.0125,-0.0852 0.01726,-0.12837 l 4.977496,-45.12252 0.809815,5.68532 5.7031,40.03938 c 0.21473,1.50761 1.514252,2.69739 3.032608,2.77692 l 4.169829,0.2185 c 0.901843,0.0473 1.694074,-0.30193 2.231911,-0.88556 0.01772,-0.0192 0.03484,-0.0389 0.05197,-0.0586 0.01609,-0.0185 0.03224,-0.0369 0.04774,-0.0558 0.01667,-0.0202 0.03263,-0.041 0.04872,-0.0617 0.01498,-0.0193 0.03009,-0.0385 0.04455,-0.0582 0.01557,-0.0212 0.03042,-0.0429 0.04533,-0.0645 0.01387,-0.0201 0.02794,-0.0401 0.04129,-0.0606 0.01439,-0.0221 0.02807,-0.0448 0.04188,-0.0673 0.0127,-0.0208 0.02566,-0.0416 0.03784,-0.0628 0.01322,-0.023 0.02566,-0.0465 0.03823,-0.0699 0.01159,-0.0216 0.02338,-0.043 0.03445,-0.0649 0.01205,-0.0239 0.02319,-0.0483 0.03452,-0.0726 0.01035,-0.0221 0.02097,-0.0442 0.03074,-0.0666 0.01081,-0.0249 0.02065,-0.0502 0.03074,-0.0754 0.0091,-0.0227 0.01843,-0.0451 0.02696,-0.0681 0.0095,-0.0257 0.01791,-0.0518 0.0267,-0.0778 0.0078,-0.0233 0.01602,-0.0463 0.02325,-0.0698 0.0081,-0.0264 0.01517,-0.0534 0.02253,-0.0802 0.0065,-0.0236 0.01342,-0.0471 0.01934,-0.071 0.0068,-0.0274 0.01237,-0.0552 0.0183,-0.0828 0.0051,-0.024 0.01081,-0.0477 0.01537,-0.0719 0.0053,-0.0284 0.0094,-0.0572 0.01394,-0.0858 0.0038,-0.024 0.0081,-0.0478 0.01127,-0.072 0.0038,-0.0293 0.0063,-0.059 0.0092,-0.0886 0.0024,-0.0241 0.0054,-0.0481 0.0072,-0.0724 0.0023,-0.0305 0.0031,-0.0614 0.0044,-0.0922 9.77e-4,-0.0238 0.0027,-0.0475 0.0031,-0.0714 5.86e-4,-0.0322 -3.91e-4,-0.0649 -8.47e-4,-0.0974 -3.26e-4,-0.0229 6.5e-5,-0.0457 -7.82e-4,-0.0687 -0.0014,-0.0363 -0.0044,-0.0731 -0.0071,-0.1098 -0.0014,-0.0195 -0.0021,-0.0388 -0.0039,-0.0584 -0.005,-0.0541 -0.01172,-0.10844 -0.01974,-0.16302 -3.25e-4,-0.002 -5.21e-4,-0.005 -8.46e-4,-0.007 l -7.660947,-51.11114 0.15631,-11.82225 c 3.26e-4,-0.0234 0.0031,-0.0451 0.0074,-0.0658 0.0014,-0.007 0.0037,-0.0128 0.0055,-0.0193 0.0037,-0.0134 0.0077,-0.0264 0.01303,-0.0385 0.003,-0.007 0.0064,-0.0132 0.0099,-0.0195 0.0057,-0.0105 0.01172,-0.0208 0.0185,-0.0302 0.0042,-0.006 0.0086,-0.0116 0.01322,-0.0171 0.06103,-0.0722 0.155268,-0.10779 0.250813,-0.10277 0.127197,0.007 0.255566,0.0841 0.306562,0.23902 l 0.943331,2.8718 5.555647,16.91248 c 0.08975,0.27413 0.203594,0.54259 0.350525,0.79516 0.651878,1.12791 1.59117,1.86413 2.728065,1.92366 0.359578,0.0188 0.73915,-0.03 1.135396,-0.15566 0.490488,-0.15546 0.899043,-0.41227 1.217785,-0.75986 0.02234,-0.0244 0.04383,-0.0496 0.06532,-0.0749 0.01856,-0.0219 0.03712,-0.0434 0.0549,-0.0658 z"
           id="path1177"
           style="fill:#00aad4;stroke-width:0.322727" /><path
           d="m 33.681844,117.64477 c 1.481688,-0.37416 2.777563,-1.16483 3.758929,-2.24858 0.01022,-0.0113 0.02065,-0.0223 0.03081,-0.0337 0.0411,-0.046 0.08167,-0.0924 0.121661,-0.13944 0.0095,-0.0111 0.01869,-0.0226 0.02807,-0.0338 0.03022,-0.0359 0.06038,-0.072 0.08994,-0.10857 0.01426,-0.0176 0.02814,-0.0356 0.04227,-0.0535 0.02429,-0.0305 0.04859,-0.0611 0.07236,-0.0921 0.01537,-0.02 0.03035,-0.0403 0.04552,-0.0604 0.02195,-0.0292 0.04396,-0.0584 0.06546,-0.0879 0.0157,-0.0216 0.03107,-0.0433 0.04657,-0.0651 0.02045,-0.0287 0.04084,-0.0572 0.0609,-0.0862 0.01557,-0.0225 0.03087,-0.0452 0.04624,-0.0679 0.01941,-0.0287 0.03869,-0.0574 0.0577,-0.0864 0.01517,-0.0232 0.03016,-0.0465 0.04513,-0.0698 0.01856,-0.029 0.03706,-0.0582 0.05523,-0.0874 0.01465,-0.0236 0.02918,-0.0474 0.04364,-0.0712 0.01785,-0.0294 0.03543,-0.059 0.05289,-0.0887 0.01413,-0.0241 0.0282,-0.0483 0.04207,-0.0726 0.01713,-0.03 0.034,-0.0601 0.0508,-0.0904 0.01348,-0.0243 0.02696,-0.0488 0.04019,-0.0733 0.01654,-0.0307 0.03276,-0.0616 0.04891,-0.0926 0.01277,-0.0245 0.0256,-0.049 0.0381,-0.0737 0.01602,-0.0316 0.03165,-0.0634 0.04728,-0.0953 0.01192,-0.0244 0.02397,-0.0487 0.03569,-0.0733 0.0157,-0.0329 0.03094,-0.0662 0.04618,-0.0994 0.01094,-0.0238 0.02208,-0.0476 0.03276,-0.0716 0.01563,-0.0351 0.03074,-0.0706 0.04592,-0.10603 0.0096,-0.0225 0.01947,-0.0448 0.02892,-0.0675 0.01693,-0.0407 0.03322,-0.0818 0.0495,-0.1229 0.007,-0.0176 0.01426,-0.035 0.0211,-0.0527 0.02286,-0.059 0.045,-0.11841 0.06643,-0.1782 0.0032,-0.009 0.0061,-0.0178 0.0092,-0.0266 0.01804,-0.051 0.03576,-0.10213 0.05282,-0.15364 0.007,-0.0212 0.01348,-0.0425 0.02032,-0.0638 0.01264,-0.0395 0.02533,-0.0789 0.03738,-0.1188 0.0074,-0.0246 0.01439,-0.0494 0.02162,-0.0741 0.01075,-0.0368 0.02149,-0.0735 0.03172,-0.11059 0.0072,-0.0263 0.01407,-0.0528 0.0211,-0.0793 0.0094,-0.0358 0.01889,-0.0716 0.02788,-0.1076 0.0068,-0.0274 0.01329,-0.055 0.0198,-0.0825 0.0084,-0.0354 0.01674,-0.0709 0.02462,-0.10642 0.0063,-0.0281 0.01225,-0.0565 0.01817,-0.0847 0.0074,-0.0354 0.01478,-0.0708 0.02175,-0.10636 0.0056,-0.0286 0.01101,-0.0574 0.01635,-0.0862 0.0066,-0.0356 0.0129,-0.0712 0.01902,-0.10694 0.0049,-0.029 0.0097,-0.0581 0.01433,-0.0873 0.0057,-0.0359 0.01107,-0.0719 0.01628,-0.10799 0.0042,-0.0292 0.0084,-0.0585 0.01225,-0.0878 0.0048,-0.0364 0.0093,-0.073 0.01368,-0.10961 0.0035,-0.0293 0.007,-0.0584 0.01009,-0.0878 0.004,-0.0372 0.0076,-0.0746 0.01107,-0.11202 0.0027,-0.029 0.0055,-0.058 0.0079,-0.0871 0.0032,-0.0384 0.0058,-0.077 0.0084,-0.1156 0.002,-0.0283 0.004,-0.0566 0.0057,-0.0851 0.0023,-0.0403 0.004,-0.0809 0.0057,-0.1214 0.0012,-0.027 0.0026,-0.0539 0.0035,-0.0809 0.0014,-0.0448 0.0022,-0.0898 0.0029,-0.13482 3.91e-4,-0.023 0.0011,-0.0458 0.0013,-0.0688 5.21e-4,-0.0681 3.25e-4,-0.13644 -8.47e-4,-0.20503 -0.07666,-4.53533 -3.836498,-8.40628 -8.398404,-8.6453 -0.07373,-0.004 -0.147192,-0.007 -0.220397,-0.009 -0.02436,-6.5e-4 -0.04852,-6.5e-4 -0.07281,-10e-4 -0.04872,-8.5e-4 -0.09737,-0.002 -0.14589,-0.002 -0.02918,0 -0.05816,6.5e-4 -0.08721,9.1e-4 -0.04344,4.6e-4 -0.08688,7.8e-4 -0.130129,0.002 -0.03067,7.9e-4 -0.06122,0.002 -0.09183,0.003 -0.04142,0.002 -0.08284,0.003 -0.124071,0.005 -0.03133,0.002 -0.06246,0.004 -0.09365,0.006 -0.04019,0.003 -0.0803,0.005 -0.120294,0.008 -0.03178,0.002 -0.06337,0.005 -0.09502,0.008 -0.03914,0.004 -0.07829,0.007 -0.117298,0.0113 -0.03172,0.003 -0.06337,0.007 -0.09502,0.0107 -0.03862,0.004 -0.07711,0.009 -0.115539,0.0143 -0.03165,0.004 -0.06318,0.009 -0.09463,0.0131 -0.03817,0.005 -0.0762,0.0113 -0.114172,0.0173 -0.03126,0.005 -0.06246,0.0101 -0.09352,0.0154 -0.03797,0.007 -0.07581,0.0134 -0.11352,0.0204 -0.03074,0.006 -0.06148,0.0115 -0.09209,0.0176 -0.03777,0.007 -0.07529,0.0154 -0.112803,0.0234 -0.03028,0.006 -0.06057,0.0129 -0.09072,0.0197 -0.03777,0.009 -0.07529,0.0176 -0.112869,0.0266 -0.02944,0.007 -0.05894,0.0141 -0.08819,0.0216 -0.03817,0.01 -0.07607,0.02 -0.113976,0.0302 -0.02833,0.008 -0.05673,0.0151 -0.08493,0.0231 -0.03921,0.0111 -0.07809,0.0228 -0.117038,0.0345 -0.02644,0.008 -0.05301,0.0156 -0.07933,0.0238 -0.04214,0.0131 -0.08389,0.027 -0.125699,0.0408 -0.02279,0.007 -0.04572,0.0147 -0.06839,0.0224 -0.05438,0.0186 -0.108375,0.0379 -0.162236,0.0576 -0.0097,0.004 -0.01954,0.007 -0.02924,0.0104 -0.06344,0.0235 -0.126416,0.0479 -0.189005,0.0729 -0.01895,0.008 -0.03758,0.0157 -0.05647,0.0234 -0.04338,0.0178 -0.08682,0.0356 -0.129803,0.0542 -0.02397,0.0104 -0.04767,0.0212 -0.07151,0.0318 -0.03752,0.0167 -0.07509,0.0333 -0.112348,0.0505 -0.0254,0.0118 -0.05054,0.0241 -0.07588,0.0361 -0.0351,0.0167 -0.07021,0.0335 -0.104988,0.0507 -0.02618,0.013 -0.05204,0.0264 -0.07803,0.0397 -0.03348,0.0171 -0.06702,0.0343 -0.100168,0.0519 -0.02618,0.0139 -0.05217,0.0281 -0.07815,0.0423 -0.03257,0.0177 -0.06506,0.0356 -0.0973,0.0537 -0.02599,0.0147 -0.05184,0.0296 -0.07763,0.0446 -0.03172,0.0184 -0.06344,0.0369 -0.09483,0.0558 -0.02573,0.0154 -0.05132,0.0311 -0.07685,0.0468 -0.031,0.0191 -0.06181,0.0384 -0.09248,0.0578 -0.0254,0.0161 -0.05073,0.0325 -0.07594,0.0489 -0.03035,0.0198 -0.06051,0.0399 -0.09053,0.0601 -0.02494,0.0168 -0.04976,0.0337 -0.07451,0.0507 -0.02989,0.0206 -0.05953,0.0416 -0.08903,0.0627 -0.02429,0.0173 -0.04859,0.0346 -0.07268,0.0522 -0.02963,0.0217 -0.05894,0.0437 -0.08825,0.0658 -0.02332,0.0176 -0.0467,0.0351 -0.06982,0.053 -0.0297,0.0229 -0.05901,0.0463 -0.08838,0.0697 -0.02227,0.0177 -0.04461,0.0353 -0.06663,0.0533 -0.02996,0.0244 -0.05953,0.0494 -0.0891,0.0743 -0.02078,0.0175 -0.04175,0.0348 -0.06239,0.0526 -0.03139,0.027 -0.06226,0.0546 -0.0932,0.0821 -0.01824,0.0162 -0.03667,0.0322 -0.05477,0.0486 -0.03732,0.0339 -0.07399,0.0683 -0.110589,0.10291 -0.0112,0.0105 -0.0226,0.0208 -0.03367,0.0314 -0.04754,0.0455 -0.0945,0.0916 -0.140809,0.1384 -0.01166,0.0117 -0.02293,0.0238 -0.03452,0.0357 -0.03439,0.0352 -0.06871,0.0704 -0.102383,0.1063 -1.304472,1.38796 -2.081658,3.27977 -2.045837,5.40207 0.06252,3.70005 2.576444,6.9569 5.976642,8.16146 0.768068,0.27211 1.581271,0.43982 2.421762,0.48391 0.840622,0.0442 1.649591,-0.0386 2.409909,-0.23056 z"
           id="path1179"
           style="fill:#00aad4;stroke-width:0.322727" /></g><text
         xml:space="preserve"
         style="font-size:5.64444px;line-height:1.25;font-family:'Arial Nova';-inkscape-font-specification:'Arial Nova, Normal';stroke-width:0.264583"
         x="89.279419"
         y="74.220238"
         id="text2363"><tspan
           sodipodi:role="line"
           id="tspan2361"
           style="stroke-width:0.264583"
           x="89.279419"
           y="74.220238">Reservar habitacin</tspan></text><g
         id="g2437"
         transform="translate(-7.7885714)"><ellipse
           style="fill:#ffaaaa;fill-opacity:0.521964;stroke:#d40000;stroke-width:0.499999;stroke-linejoin:round"
           id="ellipse288"
           cx="121.90298"
           cy="145.36006"
           rx="19.947762"
           ry="9.7891798" /><text
           xml:space="preserve"
           style="font-size:4.23333px;line-height:1.25;font-family:'Arial Nova';-inkscape-font-specification:'Arial Nova, Normal';stroke-width:0.264583"
           x="110.19931"
           y="146.84938"
           id="text2367"><tspan
             sodipodi:role="line"
             id="tspan2365"
             style="font-size:4.23333px;stroke-width:0.264583"
             x="110.19931"
             y="146.84938">Ver reservas</tspan></text></g><g
         id="g2432"
         transform="translate(-7.7885867,-24.877258)"><ellipse
           style="fill:#ffaaaa;fill-opacity:0.521964;stroke:#d40000;stroke-width:0.499999;stroke-linejoin:round"
           id="ellipse290"
           cx="121.90299"
           cy="118.76305"
           rx="19.947762"
           ry="9.7891798" /><text
           xml:space="preserve"
           style="font-size:4.23333px;line-height:1.25;font-family:'Arial Nova';-inkscape-font-specification:'Arial Nova, Normal';stroke-width:0.264583"
           x="108.59734"
           y="120.25236"
           id="text2371"><tspan
             sodipodi:role="line"
             id="tspan2369"
             style="font-size:4.23333px;stroke-width:0.264583"
             x="108.59734"
             y="120.25236">Hacer reserva</tspan></text></g><g
         id="g2443"
         transform="translate(52.778271,1.3503421)"><ellipse
           style="fill:#ffaaaa;fill-opacity:0.521964;stroke:#d40000;stroke-width:0.499999;stroke-linejoin:round"
           id="path286"
           cx="123.01119"
           cy="92.535446"
           rx="19.947762"
           ry="9.7891798" /><text
           xml:space="preserve"
           style="font-size:4.23333px;line-height:1.25;font-family:'Arial Nova';-inkscape-font-specification:'Arial Nova, Normal';text-align:center;text-anchor:middle;stroke-width:0.264583"
           x="122.92024"
           y="91.40477"
           id="text2425"><tspan
             sodipodi:role="line"
             id="tspan2423"
             style="font-size:4.23333px;text-align:center;text-anchor:middle;stroke-width:0.264583"
             x="122.92024"
             y="91.40477">Mostrar conflicto</tspan><tspan
             sodipodi:role="line"
             style="font-size:4.23333px;text-align:center;text-anchor:middle;stroke-width:0.264583"
             x="122.92024"
             y="96.696434"
             id="tspan2427">de reserva1</tspan></text></g><path
         style="fill:none;fill-rule:evenodd;stroke:#000000;stroke-width:0.5;stroke-linecap:butt;stroke-linejoin:miter;stroke-dasharray:3, 3;stroke-dashoffset:0;stroke-opacity:1;marker-end:url(#RoundedArrow)"
         d="m 134.06217,93.885788 21.77953,0"
         id="path2490"
         inkscape:connector-type="polyline"
         inkscape:connector-curvature="0"
         inkscape:connection-start="#g2432"
         inkscape:connection-end="#g2443" /><path
         style="fill:none;fill-rule:evenodd;stroke:#000000;stroke-width:0.5;stroke-linecap:butt;stroke-linejoin:miter;stroke-dasharray:none;stroke-opacity:1"
         d="M 51.309955,142.36374 103.41219,102.14669"
         id="path2492"
         inkscape:connector-type="polyline"
         inkscape:connector-curvature="0"
         inkscape:connection-start="#g2175"
         inkscape:connection-end="#g2432" /><path
         style="fill:none;fill-rule:evenodd;stroke:#000000;stroke-width:0.5;stroke-linecap:butt;stroke-linejoin:miter;stroke-dasharray:none;stroke-opacity:1"
         d="m 54.090938,151.55064 40.502319,-4.17725"
         id="path2494"
         inkscape:connector-type="polyline"
         inkscape:connector-curvature="0"
         inkscape:connection-start="#g2175"
         inkscape:connection-end="#g2437" /></g></g></svg>
